<mxfile>
    <diagram id="AmlEpA3_1aYCrx1T0YUR" name="Page-1">
        <mxGraphModel dx="972" dy="757" grid="0" gridSize="10" guides="1" tooltips="1" connect="1" arrows="1" fold="1" page="1" pageScale="1" pageWidth="1169" pageHeight="827" background="#ffffff" math="0" shadow="0">
            <root>
                <mxCell id="0"/>
                <mxCell id="1" parent="0"/>
                <mxCell id="2" value="&lt;font style=&quot;font-size: 16px&quot;&gt;Elève / Parent &lt;br&gt;d'élève&lt;/font&gt;" style="shape=umlActor;verticalLabelPosition=bottom;verticalAlign=top;html=1;strokeWidth=3;strokeColor=#C64754;fillColor=#f9a6ae;fontColor=#830C17;fontStyle=1" parent="1" vertex="1">
                    <mxGeometry x="80" y="277" width="30" height="60" as="geometry"/>
                </mxCell>
                <mxCell id="9" value="&lt;font size=&quot;1&quot; color=&quot;#830c17&quot;&gt;&lt;span style=&quot;font-size: 28px&quot;&gt;&lt;b&gt;Package &lt;/b&gt;&lt;i style=&quot;font-weight: bold&quot;&gt;&quot;Utilisez l'interface de chat&quot;&lt;/i&gt;&lt;/span&gt;&lt;/font&gt;" style="text;html=1;strokeColor=none;fillColor=none;align=left;verticalAlign=middle;whiteSpace=wrap;rounded=0;fontColor=#660000;" parent="1" vertex="1">
                    <mxGeometry x="35" y="60" width="502" height="20" as="geometry"/>
                </mxCell>
                <mxCell id="10" value="" style="rounded=1;whiteSpace=wrap;html=1;fontColor=#660000;strokeWidth=3;strokeColor=none;fillColor=#F9A6AE;gradientColor=#fee7ea;gradientDirection=north;arcSize=2;" parent="1" vertex="1">
                    <mxGeometry x="240" y="120" width="680" height="680" as="geometry"/>
                </mxCell>
                <mxCell id="12" value="&lt;font style=&quot;font-size: 16px&quot;&gt;Tuteur&lt;br&gt;&lt;/font&gt;" style="shape=umlActor;verticalLabelPosition=bottom;verticalAlign=top;html=1;strokeWidth=3;strokeColor=#C64754;fillColor=#f9a6ae;fontColor=#830C17;fontStyle=1" parent="1" vertex="1">
                    <mxGeometry x="80" y="555" width="30" height="60" as="geometry"/>
                </mxCell>
                <mxCell id="13" value="&lt;font color=&quot;#830c17&quot;&gt;&lt;span style=&quot;font-size: 20px&quot;&gt;&lt;b&gt;Appli web&lt;i&gt; Learn@Home&lt;/i&gt;&lt;/b&gt;&lt;/span&gt;&lt;/font&gt;" style="text;html=1;strokeColor=none;fillColor=none;align=center;verticalAlign=middle;whiteSpace=wrap;rounded=0;fontColor=#660000;" parent="1" vertex="1">
                    <mxGeometry x="656" y="129" width="250" height="20" as="geometry"/>
                </mxCell>
                <mxCell id="19" value="&lt;font style=&quot;font-size: 14px&quot;&gt;&lt;b&gt;&lt;font style=&quot;font-size: 14px&quot;&gt;Scroller dans l'historique&lt;br&gt;&lt;/font&gt;du canal&lt;br&gt;&lt;/b&gt;&lt;/font&gt;" style="ellipse;whiteSpace=wrap;html=1;rounded=1;strokeWidth=3;fontColor=#0e2723;strokeColor=none;fillColor=#defefa;gradientColor=#7dbbb2;" parent="1" vertex="1">
                    <mxGeometry x="319" y="230" width="200" height="70" as="geometry"/>
                </mxCell>
                <mxCell id="31" value="" style="endArrow=none;html=1;fontColor=#0e2723;strokeWidth=3;strokeColor=#830C17;exitX=0;exitY=0.5;exitDx=0;exitDy=0;" parent="1" source="19" edge="1">
                    <mxGeometry width="50" height="50" relative="1" as="geometry">
                        <mxPoint x="338.5" y="292" as="sourcePoint"/>
                        <mxPoint x="120" y="310" as="targetPoint"/>
                    </mxGeometry>
                </mxCell>
                <mxCell id="34" value="" style="endArrow=none;html=1;fontColor=#0e2723;strokeWidth=3;strokeColor=#830C17;exitX=0;exitY=0.5;exitDx=0;exitDy=0;" parent="1" source="19" edge="1">
                    <mxGeometry width="50" height="50" relative="1" as="geometry">
                        <mxPoint x="338.5" y="292" as="sourcePoint"/>
                        <mxPoint x="120" y="580" as="targetPoint"/>
                    </mxGeometry>
                </mxCell>
                <mxCell id="37" value="&lt;font style=&quot;font-size: 14px&quot;&gt;&lt;b&gt;Sélectionner un &lt;br&gt;canal de chat&lt;br&gt;&lt;/b&gt;&lt;/font&gt;" style="ellipse;whiteSpace=wrap;html=1;rounded=1;strokeWidth=3;fontColor=#0e2723;strokeColor=none;fillColor=#defefa;gradientColor=#7dbbb2;" parent="1" vertex="1">
                    <mxGeometry x="319" y="149" width="200" height="70" as="geometry"/>
                </mxCell>
                <mxCell id="38" value="" style="endArrow=none;html=1;fontColor=#0e2723;strokeWidth=3;strokeColor=#830C17;exitX=0;exitY=0.5;exitDx=0;exitDy=0;" parent="1" source="37" edge="1">
                    <mxGeometry width="50" height="50" relative="1" as="geometry">
                        <mxPoint x="495" y="530" as="sourcePoint"/>
                        <mxPoint x="119" y="310" as="targetPoint"/>
                    </mxGeometry>
                </mxCell>
                <mxCell id="39" value="" style="endArrow=none;html=1;fontColor=#0e2723;strokeWidth=3;strokeColor=#830C17;exitX=0;exitY=0.5;exitDx=0;exitDy=0;" parent="1" source="37" edge="1">
                    <mxGeometry width="50" height="50" relative="1" as="geometry">
                        <mxPoint x="495" y="382" as="sourcePoint"/>
                        <mxPoint x="120" y="580" as="targetPoint"/>
                    </mxGeometry>
                </mxCell>
                <mxCell id="40" value="&lt;font style=&quot;font-size: 14px&quot;&gt;&lt;b&gt;Poster un message&lt;br&gt;&lt;/b&gt;&lt;/font&gt;" style="ellipse;whiteSpace=wrap;html=1;rounded=1;strokeWidth=3;fontColor=#0e2723;strokeColor=none;fillColor=#defefa;gradientColor=#7dbbb2;" vertex="1" parent="1">
                    <mxGeometry x="319" y="310" width="200" height="70" as="geometry"/>
                </mxCell>
                <mxCell id="41" value="&lt;font style=&quot;font-size: 14px&quot;&gt;&lt;b&gt;Editer un de mes &lt;br&gt;messages&lt;br&gt;&lt;/b&gt;&lt;/font&gt;" style="ellipse;whiteSpace=wrap;html=1;rounded=1;strokeWidth=3;fontColor=#0e2723;strokeColor=none;fillColor=#defefa;gradientColor=#7dbbb2;" vertex="1" parent="1">
                    <mxGeometry x="319" y="470" width="200" height="70" as="geometry"/>
                </mxCell>
                <mxCell id="42" value="&lt;font style=&quot;font-size: 14px&quot;&gt;&lt;b&gt;Réagir à un message&lt;br&gt;(emoji)&lt;br&gt;&lt;/b&gt;&lt;/font&gt;" style="ellipse;whiteSpace=wrap;html=1;rounded=1;strokeWidth=3;fontColor=#0e2723;strokeColor=none;fillColor=#defefa;gradientColor=#7dbbb2;" vertex="1" parent="1">
                    <mxGeometry x="319" y="630" width="200" height="70" as="geometry"/>
                </mxCell>
                <mxCell id="43" value="&lt;font style=&quot;font-size: 14px&quot;&gt;&lt;b&gt;Citer un précédent&lt;br&gt;message&lt;br&gt;&lt;/b&gt;&lt;/font&gt;" style="ellipse;whiteSpace=wrap;html=1;rounded=1;strokeWidth=3;fontColor=#0e2723;strokeColor=none;fillColor=#defefa;gradientColor=#7dbbb2;" vertex="1" parent="1">
                    <mxGeometry x="319" y="390" width="200" height="70" as="geometry"/>
                </mxCell>
                <mxCell id="44" value="&lt;font style=&quot;font-size: 14px&quot;&gt;&lt;b&gt;Supprimer un de mes &lt;br&gt;messages&lt;br&gt;&lt;/b&gt;&lt;/font&gt;" style="ellipse;whiteSpace=wrap;html=1;rounded=1;strokeWidth=3;fontColor=#0e2723;strokeColor=none;fillColor=#defefa;gradientColor=#7dbbb2;" vertex="1" parent="1">
                    <mxGeometry x="319" y="550" width="200" height="70" as="geometry"/>
                </mxCell>
                <mxCell id="45" value="&lt;font style=&quot;font-size: 14px&quot;&gt;&lt;b&gt;&lt;font color=&quot;#333333&quot;&gt;Ajouter / supprimer&lt;br&gt;un contact ?&lt;/font&gt;&lt;br&gt;&lt;/b&gt;&lt;/font&gt;" style="ellipse;whiteSpace=wrap;html=1;rounded=1;strokeWidth=3;fontColor=#0e2723;strokeColor=none;fillColor=#E6E6E6;gradientColor=#B3B3B3;" vertex="1" parent="1">
                    <mxGeometry x="319" y="710" width="200" height="70" as="geometry"/>
                </mxCell>
                <mxCell id="46" value="&lt;font style=&quot;font-size: 14px&quot;&gt;&lt;b&gt;Montrer l'auteur &lt;br&gt;du message&lt;br&gt;&lt;/b&gt;&lt;/font&gt;" style="ellipse;whiteSpace=wrap;html=1;rounded=1;strokeWidth=3;fontColor=#0e2723;strokeColor=none;fillColor=#defefa;gradientColor=#7dbbb2;" vertex="1" parent="1">
                    <mxGeometry x="681" y="270" width="200" height="70" as="geometry"/>
                </mxCell>
                <mxCell id="47" value="&lt;font style=&quot;font-size: 14px&quot;&gt;&lt;b&gt;Horodater le message&lt;br&gt;&lt;/b&gt;&lt;/font&gt;" style="ellipse;whiteSpace=wrap;html=1;rounded=1;strokeWidth=3;fontColor=#0e2723;strokeColor=none;fillColor=#defefa;gradientColor=#7dbbb2;" vertex="1" parent="1">
                    <mxGeometry x="681" y="350" width="200" height="70" as="geometry"/>
                </mxCell>
                <mxCell id="48" value="&lt;font style=&quot;font-size: 14px&quot;&gt;&lt;b&gt;Indiquer qu'il y a eu&lt;br&gt;une modification&lt;br&gt;&lt;/b&gt;&lt;/font&gt;" style="ellipse;whiteSpace=wrap;html=1;rounded=1;strokeWidth=3;fontColor=#0e2723;strokeColor=none;fillColor=#defefa;gradientColor=#7dbbb2;" vertex="1" parent="1">
                    <mxGeometry x="681" y="470" width="200" height="70" as="geometry"/>
                </mxCell>
                <mxCell id="49" value="&lt;font style=&quot;font-size: 14px&quot;&gt;&lt;b&gt;Indiquer qu'un message&lt;br&gt;a été supprimé&lt;br&gt;&lt;/b&gt;&lt;/font&gt;" style="ellipse;whiteSpace=wrap;html=1;rounded=1;strokeWidth=3;fontColor=#0e2723;strokeColor=none;fillColor=#defefa;gradientColor=#7dbbb2;" vertex="1" parent="1">
                    <mxGeometry x="681" y="550" width="200" height="70" as="geometry"/>
                </mxCell>
                <mxCell id="51" value="&lt;font style=&quot;font-size: 14px&quot;&gt;&lt;b&gt;&lt;font color=&quot;#333333&quot;&gt;Consulter un annuaire&lt;br&gt;&lt;/font&gt;Learn@Home ?&lt;br&gt;&lt;/b&gt;&lt;/font&gt;" style="ellipse;whiteSpace=wrap;html=1;rounded=1;strokeWidth=3;fontColor=#0e2723;strokeColor=none;fillColor=#E6E6E6;gradientColor=#B3B3B3;" vertex="1" parent="1">
                    <mxGeometry x="681" y="710" width="200" height="70" as="geometry"/>
                </mxCell>
                <mxCell id="52" value="" style="endArrow=classic;html=1;fontColor=#0e2723;strokeColor=#0E2723;strokeWidth=3;exitX=1;exitY=0.5;exitDx=0;exitDy=0;dashed=1;entryX=0;entryY=0.5;entryDx=0;entryDy=0;" edge="1" parent="1" source="40" target="46">
                    <mxGeometry width="50" height="50" relative="1" as="geometry">
                        <mxPoint x="520" y="935" as="sourcePoint"/>
                        <mxPoint x="682" y="895" as="targetPoint"/>
                    </mxGeometry>
                </mxCell>
                <mxCell id="53" value="" style="endArrow=classic;html=1;fontColor=#0e2723;strokeColor=#0E2723;strokeWidth=3;exitX=1;exitY=0.5;exitDx=0;exitDy=0;dashed=1;entryX=0;entryY=0.5;entryDx=0;entryDy=0;" edge="1" parent="1" source="40" target="47">
                    <mxGeometry width="50" height="50" relative="1" as="geometry">
                        <mxPoint x="529" y="355" as="sourcePoint"/>
                        <mxPoint x="691" y="315" as="targetPoint"/>
                    </mxGeometry>
                </mxCell>
                <mxCell id="54" value="" style="endArrow=classic;html=1;fontColor=#0e2723;strokeColor=#0E2723;strokeWidth=3;exitX=1;exitY=0.5;exitDx=0;exitDy=0;dashed=1;entryX=0;entryY=0.5;entryDx=0;entryDy=0;" edge="1" parent="1" source="44" target="49">
                    <mxGeometry width="50" height="50" relative="1" as="geometry">
                        <mxPoint x="529" y="355" as="sourcePoint"/>
                        <mxPoint x="691" y="315" as="targetPoint"/>
                    </mxGeometry>
                </mxCell>
                <mxCell id="55" value="" style="endArrow=classic;html=1;fontColor=#0e2723;strokeColor=#0E2723;strokeWidth=3;exitX=1;exitY=0.5;exitDx=0;exitDy=0;dashed=1;entryX=0;entryY=0.5;entryDx=0;entryDy=0;" edge="1" parent="1" source="41" target="48">
                    <mxGeometry width="50" height="50" relative="1" as="geometry">
                        <mxPoint x="539" y="365" as="sourcePoint"/>
                        <mxPoint x="701" y="325" as="targetPoint"/>
                    </mxGeometry>
                </mxCell>
                <mxCell id="56" value="" style="endArrow=classic;html=1;fontColor=#0e2723;strokeWidth=3;exitX=1;exitY=0.5;exitDx=0;exitDy=0;dashed=1;entryX=0;entryY=0.5;entryDx=0;entryDy=0;strokeColor=#333333;" edge="1" parent="1" source="45" target="51">
                    <mxGeometry width="50" height="50" relative="1" as="geometry">
                        <mxPoint x="549" y="375" as="sourcePoint"/>
                        <mxPoint x="711" y="335" as="targetPoint"/>
                    </mxGeometry>
                </mxCell>
                <mxCell id="57" value="" style="endArrow=none;html=1;fontColor=#0e2723;strokeWidth=3;strokeColor=#830C17;exitX=0;exitY=0.5;exitDx=0;exitDy=0;" edge="1" parent="1" source="43">
                    <mxGeometry width="50" height="50" relative="1" as="geometry">
                        <mxPoint x="329" y="275" as="sourcePoint"/>
                        <mxPoint x="120" y="310" as="targetPoint"/>
                    </mxGeometry>
                </mxCell>
                <mxCell id="58" value="" style="endArrow=none;html=1;fontColor=#0e2723;strokeWidth=3;strokeColor=#830C17;exitX=0;exitY=0.5;exitDx=0;exitDy=0;" edge="1" parent="1" source="41">
                    <mxGeometry width="50" height="50" relative="1" as="geometry">
                        <mxPoint x="339" y="285" as="sourcePoint"/>
                        <mxPoint x="120" y="310" as="targetPoint"/>
                    </mxGeometry>
                </mxCell>
                <mxCell id="59" value="" style="endArrow=none;html=1;fontColor=#0e2723;strokeWidth=3;strokeColor=#830C17;exitX=0;exitY=0.5;exitDx=0;exitDy=0;" edge="1" parent="1" source="44">
                    <mxGeometry width="50" height="50" relative="1" as="geometry">
                        <mxPoint x="349" y="295" as="sourcePoint"/>
                        <mxPoint x="120" y="310" as="targetPoint"/>
                    </mxGeometry>
                </mxCell>
                <mxCell id="60" value="" style="endArrow=none;html=1;fontColor=#0e2723;strokeWidth=3;strokeColor=#830C17;exitX=0;exitY=0.5;exitDx=0;exitDy=0;" edge="1" parent="1" source="42">
                    <mxGeometry width="50" height="50" relative="1" as="geometry">
                        <mxPoint x="359" y="305" as="sourcePoint"/>
                        <mxPoint x="120" y="310" as="targetPoint"/>
                    </mxGeometry>
                </mxCell>
                <mxCell id="61" value="" style="endArrow=none;html=1;fontColor=#0e2723;strokeWidth=3;strokeColor=#830C17;exitX=0;exitY=0.5;exitDx=0;exitDy=0;" edge="1" parent="1" source="40">
                    <mxGeometry width="50" height="50" relative="1" as="geometry">
                        <mxPoint x="329" y="435" as="sourcePoint"/>
                        <mxPoint x="120" y="310" as="targetPoint"/>
                    </mxGeometry>
                </mxCell>
                <mxCell id="62" value="" style="endArrow=none;html=1;fontColor=#0e2723;strokeWidth=3;strokeColor=#830C17;exitX=0;exitY=0.5;exitDx=0;exitDy=0;" edge="1" parent="1" source="40">
                    <mxGeometry width="50" height="50" relative="1" as="geometry">
                        <mxPoint x="329" y="275" as="sourcePoint"/>
                        <mxPoint x="120" y="580" as="targetPoint"/>
                    </mxGeometry>
                </mxCell>
                <mxCell id="63" value="" style="endArrow=none;html=1;fontColor=#0e2723;strokeWidth=3;strokeColor=#830C17;exitX=0;exitY=0.5;exitDx=0;exitDy=0;" edge="1" parent="1" source="44">
                    <mxGeometry width="50" height="50" relative="1" as="geometry">
                        <mxPoint x="339" y="285" as="sourcePoint"/>
                        <mxPoint x="120" y="580" as="targetPoint"/>
                    </mxGeometry>
                </mxCell>
                <mxCell id="64" value="" style="endArrow=none;html=1;fontColor=#0e2723;strokeWidth=3;strokeColor=#830C17;exitX=0;exitY=0.5;exitDx=0;exitDy=0;" edge="1" parent="1" source="42">
                    <mxGeometry width="50" height="50" relative="1" as="geometry">
                        <mxPoint x="349" y="295" as="sourcePoint"/>
                        <mxPoint x="120" y="580" as="targetPoint"/>
                    </mxGeometry>
                </mxCell>
                <mxCell id="65" value="" style="endArrow=none;html=1;fontColor=#0e2723;strokeWidth=3;strokeColor=#830C17;exitX=0;exitY=0.5;exitDx=0;exitDy=0;" edge="1" parent="1" source="43">
                    <mxGeometry width="50" height="50" relative="1" as="geometry">
                        <mxPoint x="329" y="355" as="sourcePoint"/>
                        <mxPoint x="120" y="580" as="targetPoint"/>
                    </mxGeometry>
                </mxCell>
                <mxCell id="66" value="" style="endArrow=none;html=1;fontColor=#0e2723;strokeWidth=3;strokeColor=#830C17;exitX=0;exitY=0.5;exitDx=0;exitDy=0;" edge="1" parent="1" source="41">
                    <mxGeometry width="50" height="50" relative="1" as="geometry">
                        <mxPoint x="329" y="435" as="sourcePoint"/>
                        <mxPoint x="120" y="580" as="targetPoint"/>
                    </mxGeometry>
                </mxCell>
            </root>
        </mxGraphModel>
    </diagram>
</mxfile>